<svg width="33" height="35" viewBox="0 0 33 35" fill="none" xmlns="http://www.w3.org/2000/svg">
<g id="noun_Pie Chart_4196192 1" clip-path="url(#clip0_1408_85)">
<g id="Group 2">
<g id="Group">
<path id="Vector" d="M9.33955 2.69273C9.30215 2.62059 9.27934 2.54179 9.27242 2.46082C9.26549 2.37986 9.27458 2.29833 9.29918 2.22088C9.32377 2.14343 9.36338 2.07159 9.41574 2.00946C9.46811 1.94732 9.53221 1.89611 9.60437 1.85876C11.8186 0.73277 14.2783 0.175537 16.7616 0.237293C19.2449 0.29905 21.6739 0.977855 23.8294 2.21251C23.9001 2.25317 23.9621 2.30743 24.0117 2.37215C24.0613 2.43687 24.0977 2.51078 24.1186 2.58962C24.1395 2.66845 24.1446 2.75065 24.1336 2.83146C24.1226 2.91228 24.0957 2.99012 24.0545 3.06049L16.9334 15.2818C16.8791 15.3754 16.8011 15.453 16.7072 15.5069C16.6134 15.5608 16.507 15.5891 16.3988 15.589H16.3831C16.2722 15.586 16.1642 15.5534 16.0702 15.4946C15.9762 15.4358 15.8996 15.3529 15.8485 15.2545L9.33955 2.69273ZM16.0168 18.8483V18.8471L9.50763 6.28529C9.43203 6.13986 9.30197 6.03024 9.14583 5.98037C8.9897 5.9305 8.82018 5.94442 8.67427 6.0191C6.9395 6.90861 5.39748 8.13195 4.1367 9.61893C2.87592 11.1059 1.92122 12.8272 1.32738 14.6841C0.733546 16.541 0.512268 18.4969 0.67625 20.4395C0.840232 22.3821 1.38624 24.2732 2.28295 26.0043C3.17966 27.7353 4.4094 29.2722 5.9016 30.5268C7.3938 31.7814 9.11907 32.729 10.9784 33.3151C12.8377 33.9012 14.7945 34.1143 16.7364 33.9423C18.6784 33.7702 20.5672 33.2164 22.2945 32.3125C22.4396 32.2365 22.5487 32.1062 22.5981 31.9501C22.6475 31.7939 22.6332 31.6246 22.5582 31.479L16.0168 18.8483ZM23.6468 30.7218L23.6964 30.8209C23.7712 30.967 23.9001 31.0781 24.0556 31.1306C24.1194 31.1517 24.1867 31.1601 24.2538 31.1553C24.3518 31.1526 24.4484 31.1316 24.5387 31.0934C24.7641 30.9817 24.9833 30.8576 25.1951 30.7218C25.8251 30.3563 26.4256 29.9422 26.9912 29.4832H23.0027L23.6468 30.7218ZM22.3587 28.2445H28.3413C28.7259 27.858 29.082 27.4441 29.4065 27.0059H21.7146L22.3587 28.2445ZM21.0829 25.7673H30.286C30.5397 25.3696 30.7672 24.9558 30.9672 24.5286H20.4388L21.0829 25.7673ZM19.7947 23.29H31.5122C31.6766 22.8856 31.8172 22.472 31.9333 22.0513H19.1506L19.7947 23.29ZM18.5065 20.8127H32.243C32.3173 20.4039 32.3793 19.9952 32.4164 19.574H17.8748L18.5065 20.8127ZM25.1456 5.15627C25.0761 5.11304 24.9981 5.08515 24.9169 5.07447C24.8358 5.06379 24.7533 5.07056 24.6749 5.09434C24.5947 5.11266 24.5191 5.14744 24.453 5.19648C24.3869 5.24552 24.3317 5.30775 24.2909 5.37922L23.9565 5.949H26.3471C25.961 5.66346 25.56 5.39883 25.1456 5.15627ZM27.8458 7.18764H23.2381L22.5197 8.42628H29.0225C28.6561 7.98967 28.2631 7.57601 27.8458 7.18764ZM29.9515 9.66492H21.7889L21.0705 10.9036H30.7071C30.4836 10.474 30.2312 10.0602 29.9515 9.66492ZM31.3016 12.1422H20.3521L19.6336 13.3808H31.7847C31.6474 12.9591 31.4861 12.5455 31.3016 12.1422ZM32.1315 14.6195H18.9028L18.1844 15.8581H32.3545C32.3053 15.4411 32.2309 15.0275 32.1315 14.6195ZM32.4784 17.0968H17.466L17.1687 17.6046C17.1151 17.694 17.0857 17.796 17.0835 17.9002C17.0814 18.0045 17.1065 18.1076 17.1564 18.1992L17.2307 18.3354H32.5031C32.5155 18.2115 32.5155 18.0753 32.5155 17.9514C32.5155 17.6665 32.5031 17.3817 32.4784 17.0968Z" fill="white"/>
</g>
<path id="Ellipse 1" d="M9.05506 5.40689C8.82801 4.97667 8.29363 4.80987 7.8768 5.06066C4.57693 7.04602 2.11153 10.1819 0.968125 13.8808C-0.262245 17.8609 0.138882 22.1668 2.08326 25.8512C4.02764 29.5356 7.356 32.2966 11.3361 33.527C15.035 34.6704 19.0151 34.4048 22.5163 32.801C22.9586 32.5984 23.1225 32.0631 22.8954 31.6329L15.9752 18.5199L9.05506 5.40689Z" fill="white"/>
</g>
</g>
<defs>
<clipPath id="clip0_1408_85">
<rect width="32.745" height="34.8351" fill="white" transform="translate(-0.0114746 -0.319336)"/>
</clipPath>
</defs>
</svg>
